<svg xmlns="http://www.w3.org/2000/svg" width="12.551" height="16.458" viewBox="0 0 12.551 16.458"><defs><style>.a{fill:#8f8f8f;}</style></defs><path class="a" d="M73.846,1.5A.843.843,0,0,1,74.72.647H78.31a.843.843,0,0,1,.873.849v.93h.647V1.5A1.49,1.49,0,0,0,78.31,0H74.72A1.491,1.491,0,0,0,73.2,1.5v.93h.647Zm0,0" transform="translate(-70.239)"/><path class="a" d="M29.509,135.443h7.65a1.378,1.378,0,0,0,1.31-1.456V124H28.2v9.988a1.378,1.378,0,0,0,1.31,1.456Zm5.887-9.9a.323.323,0,1,1,.647,0v7.642a.323.323,0,0,1-.647,0Zm-2.386,0a.323.323,0,1,1,.647,0v7.642a.323.323,0,0,1-.647,0Zm-2.386,0a.323.323,0,1,1,.647,0v7.642a.323.323,0,0,1-.647,0Zm0,0" transform="translate(-27.059 -118.986)"/><path class="a" d="M.809,69.617H11.743a.809.809,0,0,0,0-1.617H.809a.809.809,0,0,0,0,1.617Zm0,0" transform="translate(0 -65.25)"/></svg>